<svg width="914" height="400" fill="none" xmlns="http://www.w3.org/2000/svg">
  <path fill="#fff" d="M0 0h914v400H0z"/>
  <path d="M374.606 211h-5.073l-3.048-5.045a16.638 16.638 0 00-.657-1.025 5.096 5.096 0 00-.642-.766 2.217 2.217 0 00-.67-.492 1.601 1.601 0 00-.752-.178h-1.19V211h-4.416v-19.605h7c4.758 0 7.137 1.777 7.137 5.332 0 .683-.105 1.317-.314 1.9a5.294 5.294 0 01-.889 1.559 5.621 5.621 0 01-1.395 1.203 7.056 7.056 0 01-1.804.793v.054c.291.091.574.242.847.452.274.2.538.437.793.71.256.274.497.57.725.889.237.31.451.615.643.916l3.705 5.797zm-12.032-16.297v5.455h1.914c.948 0 1.709-.273 2.284-.82.583-.556.875-1.244.875-2.065 0-1.713-1.026-2.57-3.077-2.57h-1.996zm24.761 10.527h-9.133c.146 2.033 1.426 3.049 3.842 3.049 1.54 0 2.894-.364 4.06-1.093v3.117c-1.294.692-2.976 1.039-5.045 1.039-2.26 0-4.015-.625-5.263-1.873-1.249-1.258-1.873-3.008-1.873-5.25 0-2.324.674-4.166 2.023-5.524 1.349-1.358 3.008-2.037 4.977-2.037 2.041 0 3.618.606 4.73 1.819 1.121 1.212 1.682 2.857 1.682 4.935v1.818zm-4.006-2.652c0-2.005-.811-3.008-2.434-3.008-.692 0-1.294.287-1.804.862-.502.574-.807 1.289-.916 2.146h5.154zM403.044 211h-4.32v-1.928h-.055c-.984 1.513-2.429 2.27-4.334 2.27-1.75 0-3.158-.615-4.224-1.846-1.067-1.239-1.6-2.967-1.6-5.182 0-2.315.588-4.169 1.764-5.564 1.175-1.395 2.716-2.092 4.621-2.092 1.804 0 3.062.647 3.773 1.942h.055v-8.327h4.32V211zm-4.238-6.809v-1.052c0-.912-.264-1.668-.793-2.27-.529-.601-1.217-.902-2.064-.902-.958 0-1.705.378-2.243 1.135-.537.747-.806 1.777-.806 3.089 0 1.231.259 2.179.779 2.844.52.666 1.24.998 2.16.998.875 0 1.586-.351 2.133-1.053.556-.701.834-1.631.834-2.789zm9.502-9.406c-.729 0-1.326-.214-1.791-.642a2.118 2.118 0 01-.697-1.6c0-.647.233-1.176.697-1.586.465-.41 1.062-.615 1.791-.615.739 0 1.336.205 1.791.615.465.41.698.939.698 1.586 0 .656-.233 1.194-.698 1.613-.455.42-1.052.629-1.791.629zM410.441 211h-4.32v-14h4.32v14zm2.161-.369v-3.5a9.27 9.27 0 002.119.957c.711.21 1.381.314 2.01.314.765 0 1.367-.104 1.805-.314.446-.21.669-.529.669-.957 0-.274-.1-.501-.3-.684a2.774 2.774 0 00-.78-.478 8.179 8.179 0 00-1.025-.369c-.374-.11-.734-.233-1.08-.37a11.238 11.238 0 01-1.477-.669 4.589 4.589 0 01-1.066-.848 3.45 3.45 0 01-.656-1.108c-.146-.419-.219-.916-.219-1.49 0-.784.169-1.458.506-2.023a4.206 4.206 0 011.367-1.381 6.11 6.11 0 011.955-.793c.738-.173 1.504-.26 2.297-.26.62 0 1.249.05 1.887.151.638.091 1.267.227 1.886.41v3.336a6.611 6.611 0 00-1.763-.711 7.146 7.146 0 00-1.832-.246 3.82 3.82 0 00-.807.082 2.3 2.3 0 00-.656.218 1.137 1.137 0 00-.451.37.813.813 0 00-.164.505c0 .256.082.474.246.657.164.182.378.341.642.478.265.128.556.246.875.356.328.1.652.205.971.314.574.201 1.094.419 1.559.656.464.237.861.515 1.189.834.337.319.592.693.766 1.121.182.429.273.939.273 1.532 0 .829-.182 1.54-.547 2.133a4.327 4.327 0 01-1.435 1.435c-.593.365-1.281.629-2.065.793-.775.173-1.581.26-2.42.26-1.54 0-2.967-.237-4.279-.711zm29.952-.356c-1.513.711-3.24 1.067-5.181 1.067-1.386 0-2.644-.242-3.774-.725a8.548 8.548 0 01-2.898-2.037c-.793-.866-1.408-1.896-1.846-3.09-.428-1.194-.643-2.497-.643-3.91 0-1.486.228-2.866.684-4.142.465-1.286 1.126-2.398 1.983-3.336a9.1 9.1 0 013.103-2.229c1.221-.538 2.589-.807 4.102-.807 1.668 0 3.158.256 4.47.766v1.941a9.93 9.93 0 00-4.498-1.052c-1.267 0-2.392.218-3.377.656a6.955 6.955 0 00-2.488 1.832c-.674.775-1.189 1.695-1.545 2.762-.355 1.057-.533 2.215-.533 3.472 0 1.131.159 2.197.478 3.2a7.756 7.756 0 001.409 2.611 6.787 6.787 0 002.337 1.777c.93.438 2.01.657 3.241.657 1.886 0 3.545-.397 4.976-1.19v1.777zm3.624.725v-19.605h1.818v17.951h7.875V211h-9.693zm14.274 0h-1.818v-19.605h1.818V211zm25.249 0v-13.535c0-.693.055-1.809.164-3.35h-.055c-.127.41-.246.766-.355 1.067-.1.3-.196.547-.287.738L478.332 211h-.779l-6.85-14.984c-.2-.456-.406-1.099-.615-1.928h-.055c.037.419.059.898.068 1.435.019.538.028 1.135.028 1.791V211h-1.778v-19.605h2.147l6.658 14.738c.137.31.269.629.397.957.136.319.259.661.369 1.025h.082c.127-.364.241-.697.342-.998.109-.301.241-.624.396-.971l6.713-14.751h2.037V211h-1.791zm11.758.328c-1.039 0-1.973-.173-2.802-.519a6.044 6.044 0 01-2.106-1.463 6.55 6.55 0 01-1.34-2.284c-.31-.884-.464-1.863-.464-2.939 0-1.167.164-2.21.492-3.131.328-.92.793-1.7 1.394-2.338a6.016 6.016 0 012.201-1.476c.857-.338 1.814-.506 2.872-.506 1.011 0 1.923.168 2.734.506a5.507 5.507 0 012.064 1.435c.565.629.998 1.395 1.299 2.297.301.902.451 1.928.451 3.076 0 1.094-.159 2.092-.478 2.994a6.671 6.671 0 01-1.34 2.311 5.964 5.964 0 01-2.133 1.504c-.838.355-1.786.533-2.844.533zm.137-13.139c-.765 0-1.458.133-2.078.397a4.39 4.39 0 00-1.6 1.162c-.437.501-.774 1.121-1.011 1.859-.237.73-.356 1.559-.356 2.489 0 .875.119 1.663.356 2.365a5.4 5.4 0 00.998 1.805c.437.501.966.888 1.586 1.162.619.264 1.312.396 2.078.396.784 0 1.476-.127 2.078-.383a4.196 4.196 0 001.531-1.134c.419-.502.734-1.112.944-1.832.218-.72.328-1.541.328-2.461 0-1.887-.42-3.327-1.258-4.321-.839-1.002-2.037-1.504-3.596-1.504zM516.669 211v-8.066c0-3.163-1.148-4.745-3.445-4.745a3.9 3.9 0 00-1.696.37 4.05 4.05 0 00-1.353.998c-.374.428-.67.938-.889 1.531a5.594 5.594 0 00-.314 1.9V211h-1.75v-14h1.75v2.434h.054c1.039-1.842 2.603-2.762 4.69-2.762 1.531 0 2.698.497 3.5 1.49.802.994 1.203 2.429 1.203 4.307V211h-1.75zm6.276-17.541c-.337 0-.629-.119-.875-.355a1.2 1.2 0 01-.369-.903c0-.355.123-.647.369-.875.246-.237.538-.355.875-.355.173 0 .337.032.492.095.155.055.287.137.397.246.118.11.209.242.273.397.073.146.109.31.109.492a1.276 1.276 0 01-.369.903 1.367 1.367 0 01-.41.259c-.146.064-.31.096-.492.096zM522.084 211v-14h1.75v14h-1.75zm11.717-.164a4.34 4.34 0 01-1.969.451c-2.26 0-3.39-1.303-3.39-3.91v-8.846h-2.461V197h2.461v-3.527l1.75-.575V197h3.609v1.531h-3.609v8.573c0 .947.154 1.631.464 2.05.31.42.834.629 1.573.629.547 0 1.071-.164 1.572-.492v1.545zm7.848.492c-1.039 0-1.973-.173-2.803-.519a6.04 6.04 0 01-2.105-1.463 6.55 6.55 0 01-1.34-2.284c-.31-.884-.465-1.863-.465-2.939 0-1.167.164-2.21.492-3.131.329-.92.793-1.7 1.395-2.338a6.008 6.008 0 012.201-1.476c.857-.338 1.814-.506 2.871-.506 1.012 0 1.923.168 2.735.506a5.507 5.507 0 012.064 1.435c.565.629.998 1.395 1.299 2.297.301.902.451 1.928.451 3.076 0 1.094-.159 2.092-.478 2.994a6.671 6.671 0 01-1.34 2.311 5.981 5.981 0 01-2.133 1.504c-.839.355-1.787.533-2.844.533zm.137-13.139c-.766 0-1.458.133-2.078.397a4.39 4.39 0 00-1.6 1.162c-.437.501-.775 1.121-1.012 1.859-.237.73-.355 1.559-.355 2.489 0 .875.118 1.663.355 2.365.237.702.57 1.303.998 1.805.438.501.967.888 1.586 1.162.62.264 1.313.396 2.079.396.783 0 1.476-.127 2.078-.383a4.205 4.205 0 001.531-1.134c.419-.502.734-1.112.943-1.832.219-.72.328-1.541.328-2.461 0-1.887-.419-3.327-1.257-4.321-.839-1.002-2.038-1.504-3.596-1.504zm16.571.602c-.41-.301-.939-.451-1.586-.451-.465 0-.875.091-1.231.273-.355.173-.67.41-.943.711a4.594 4.594 0 00-.684 1.053 8.01 8.01 0 00-.451 1.23c-.109.429-.191.862-.246 1.299-.046.438-.068.852-.068 1.244V211h-1.737v-14h1.737v2.994h.054c.164-.51.37-.966.616-1.367.255-.41.547-.752.875-1.025a3.572 3.572 0 011.066-.643 3.497 3.497 0 011.231-.219c.282 0 .533.018.751.055.228.036.433.091.616.164v1.832z" fill="#333"/>
</svg>
